<?xml version="1.0" encoding="iso-8859-1"?>
<!-- Generator: Adobe Illustrator 16.0.0, SVG Export Plug-In . SVG Version: 6.00 Build 0)  -->
<!DOCTYPE svg PUBLIC "-//W3C//DTD SVG 1.1//EN" "http://www.w3.org/Graphics/SVG/1.1/DTD/svg11.dtd">
<svg version="1.1" id="Capa_1" xmlns="http://www.w3.org/2000/svg" xmlns:xlink="http://www.w3.org/1999/xlink" x="0px" y="0px"
	 width="365.4px" height="365.4px" viewBox="0 0 365.4 365.4" style="enable-background:new 0 0 365.4 365.4;" xml:space="preserve"
	>
<g>
	<g>
		<path d="M283.101,152.1l26.8-26.8c3.8-3.8,3.8-9.6,0-13.4c-3.8-3.8-9.601-3.8-13.4,0l-26.8,26.8c-3.8,3.8-3.8,9.6,0,13.4
			C273.601,155.9,281.2,155.9,283.101,152.1z"/>
		<path d="M181.8,115.7c5.7,0,9.601-3.8,9.601-9.6V67.9c0-5.7-3.8-9.6-9.601-9.6c-5.8,0-9.6,3.8-9.6,9.6v38.2
			C172.2,111.9,177.9,115.7,181.8,115.7z"/>
		<path d="M308,240c0,5.699,3.8,9.6,9.601,9.6H355.8c5.7,0,9.601-3.8,9.601-9.6c0-5.801-3.8-9.601-9.601-9.601h-38.199
			C311.8,230.5,308,236.2,308,240z"/>
		<path d="M353.9,287.9H9.6c-3.8,0-9.6,3.8-9.6,9.601c0,5.8,5.7,9.6,9.6,9.6h344.2c5.7,0,9.601-3.8,9.601-9.6
			C363.4,291.7,359.601,287.9,353.9,287.9z"/>
		<path d="M9.6,249.6h38.2c5.7,0,9.6-3.8,9.6-9.6c0-5.801-3.8-9.601-9.6-9.601H9.6C3.9,230.4,0,236.1,0,240
			C0.1,245.8,3.9,249.6,9.6,249.6z"/>
		<path d="M80.4,152.1c3.8,3.8,9.6,3.8,13.4,0c3.8-3.8,3.8-9.6,0-13.4L67,111.9c-3.8-3.8-9.6-3.8-13.4,0c-3.8,3.8-3.8,9.6,0,13.4
			L80.4,152.1z"/>
		<path d="M78.5,249.6h210.4c0-3.8,0-5.7,0-9.6c0-57.4-47.8-105.2-105.2-105.2c-57.4,0-105.2,47.8-105.2,105.2
			C76.6,243.9,76.6,245.8,78.5,249.6z"/>
	</g>
</g>
<g>
</g>
<g>
</g>
<g>
</g>
<g>
</g>
<g>
</g>
<g>
</g>
<g>
</g>
<g>
</g>
<g>
</g>
<g>
</g>
<g>
</g>
<g>
</g>
<g>
</g>
<g>
</g>
<g>
</g>
</svg>
